# xmcd
#
# Track frame offsets: 
#        150
#        15412
#        29825
#        39650
#        54612
#        67382
#        80787
#        94312
#        113575
#        127162
#        142787
#        159212
#        175125
#        190587
#        209607
#        223712
#        235400
#        249887
#        263737
#        279737
#        295800
#        310762
#        325837
#        341662
#
# Disc length: 4798 seconds
#
# Revision: 0
# Processed by: cddbd v1.5.1PL0 Copyright (c) Steve Scherf et al.
# Submitted via: ExactAudioCopy v0.95b2
#
DISCID=6b12bc18
DTITLE=George Jones - The Gospel Collection
DYEAR=2004
DGENRE=Gospel
TTITLE0=Amazing Grace
TTITLE1=It Is No Secret
TTITLE2=Just A Little Walk With Jesus
TTITLE3=Where We'll Never Grow Old
TTITLE4=Swing Low, Sweet Chariot
TTITLE5=Why Me Lord
TTITLE6=I'll Fly Away
TTITLE7=Precious Memories
TTITLE8=Just A Closer Walk With Thee
TTITLE9=In The Garden
TTITLE10=Lonesome Valley
TTITLE11=When Mama Sang (The Angels Stopped To Listen)
TTITLE12=Peace In The Valley
TTITLE13=What A Friend We Have In Jesus
TTITLE14=Softly And Tenderly
TTITLE15=Lily Of The Valley
TTITLE16=The Old Rugged Cross
TTITLE17=Leaning On The Everlasting Arms
TTITLE18=Family Bible
TTITLE19=Mansion Over The Hilltop (feat. Vestal Goodman)
TTITLE20=If I Could Hear My Mother Pray Again
TTITLE21=How Beautiful Heaven Must Be
TTITLE22=Jesus, Hold My Hand
TTITLE23=I Know A Man Who Can (feat. Sheri Copeland and Barry Smith)
EXTD=
EXTT0=
EXTT1=
EXTT2=
EXTT3=
EXTT4=
EXTT5=
EXTT6=
EXTT7=
EXTT8=
EXTT9=
EXTT10=
EXTT11=
EXTT12=
EXTT13=
EXTT14=
EXTT15=
EXTT16=
EXTT17=
EXTT18=
EXTT19=
EXTT20=
EXTT21=
EXTT22=
EXTT23=
PLAYORDER=
